<svg width="121" height="25" viewBox="0 0 121 25" fill="none" xmlns="http://www.w3.org/2000/svg">
<g clip-path="url(#clip0_175_9)">
<g clip-path="url(#clip1_175_9)">
<path d="M120.341 11.345C120.341 11.933 120.303 12.521 120.189 13.109H102.202C102.997 16.134 105.762 18.361 109.056 18.361C111.176 18.361 113.032 17.437 114.357 16.008H119.28C117.5 19.79 113.6 22.395 109.056 22.395C102.846 22.395 97.81 17.479 97.81 11.345C97.81 5.25201 102.846 0.294006 109.056 0.294006C114.699 0.294006 119.356 4.32801 120.189 9.62201C120.303 10.168 120.341 10.756 120.341 11.345ZM103.603 9.62201H115.91C115.153 6.59701 112.35 4.37001 109.056 4.37001C105.988 4.37001 103.338 6.34501 102.392 9.03401C102.278 9.37001 102.126 9.70601 101.937 10L101.217 11.176L101.71 11.513L102.429 10.294C102.694 9.87401 103.111 9.62201 103.603 9.62201Z" fill="white"/>
<path d="M95.053 0.839996V18.319H96.682L96.166 24.705H92.311V23.109C92.311 22.604 92.43 22.142 92.708 21.722L93.622 20.209L93.145 19.873L92.669 20.63C92.231 21.344 91.437 21.806 90.642 21.806H74.151V0.839996H78.522V18.319H90.642V0.839996H95.053Z" fill="white"/>
<path d="M67.381 0.882004H71.898V21.849H67.381V13.109H54.969V21.849H50.493V0.882004H54.969V9.622H67.381V0.882004Z" fill="white"/>
<path d="M11.975 18.362C14.2 18.362 16.147 17.437 17.538 16.009H22.704C20.836 19.79 16.743 22.395 11.975 22.395C5.45797 22.395 0.172974 17.479 0.172974 11.345C0.172974 5.25201 5.45797 0.294006 11.975 0.294006C16.743 0.294006 20.836 2.94101 22.704 6.68101H17.538C16.147 5.25201 14.2 4.37001 11.975 4.37001C7.88197 4.37001 4.54397 7.47901 4.54397 11.345C4.54397 15.21 7.88197 18.362 11.975 18.362Z" fill="white"/>
<path d="M36.222 22.758C42.445 22.758 47.488 17.746 47.488 11.563C47.488 5.38 42.445 0.367004 36.222 0.367004C30.001 0.367004 24.957 5.38 24.957 11.563C24.957 17.746 30.001 22.758 36.222 22.758ZM41.577 6.242C42.997 7.653 43.795 9.567 43.795 11.563H36.223H28.65C28.65 9.567 29.448 7.653 30.868 6.242C32.288 4.83 34.214 4.037 36.223 4.037C38.231 4.037 40.157 4.83 41.577 6.242Z" fill="url(#paint0_linear_175_9)"/>
</g>
</g>
<defs>
<linearGradient id="paint0_linear_175_9" x1="36.1665" y1="0.367004" x2="36.2772" y2="22.758" gradientUnits="userSpaceOnUse">
<stop stop-color="#FFCD33"/>
<stop offset="1" stop-color="#FFA800"/>
</linearGradient>
<clipPath id="clip0_175_9">
<rect width="121" height="25" fill="white"/>
</clipPath>
<clipPath id="clip1_175_9">
<rect width="121" height="25" fill="white"/>
</clipPath>
</defs>
</svg>
