<svg width="15" height="16" viewBox="0 0 15 16" fill="none" xmlns="http://www.w3.org/2000/svg">
<path d="M0 15.5359L1.05941 11.6657C0.405677 10.5328 0.0621703 9.24858 0.0627983 7.9317C0.0646822 3.81464 3.41497 0.464355 7.5314 0.464355C9.52901 0.464983 11.4042 1.24305 12.8146 2.65476C14.2244 4.06646 15.0006 5.94288 15 7.93861C14.9981 12.0563 11.6478 15.4066 7.5314 15.4066C6.28171 15.406 5.05024 15.0926 3.95943 14.4973L0 15.5359ZM4.1428 13.1452C5.1953 13.7701 6.20007 14.1443 7.52889 14.145C10.9501 14.145 13.7371 11.3605 13.739 7.93735C13.7403 4.50731 10.9665 1.7266 7.53391 1.72535C4.11015 1.72535 1.32504 4.50982 1.32379 7.93233C1.32316 9.32959 1.7326 10.3758 2.42025 11.4704L1.79289 13.7613L4.1428 13.1452ZM11.2936 9.71391C11.2472 9.63605 11.1228 9.58957 10.9357 9.49601C10.7492 9.40244 9.8317 8.95092 9.66026 8.88875C9.48945 8.82658 9.36511 8.79518 9.24014 8.98232C9.1158 9.16883 8.75785 9.58957 8.64921 9.71391C8.54057 9.83826 8.4313 9.85396 8.24479 9.76039C8.05828 9.66682 7.45667 9.47026 6.74391 8.83411C6.1894 8.33926 5.81449 7.72823 5.70585 7.54109C5.59721 7.35458 5.69455 7.25348 5.78749 7.16054C5.87164 7.07701 5.974 6.94263 6.06757 6.83336C6.1624 6.72534 6.19317 6.64747 6.25597 6.52251C6.31814 6.39817 6.28736 6.2889 6.24027 6.19533C6.19317 6.10239 5.82015 5.18365 5.66503 4.81C5.51306 4.44639 5.35921 4.49538 5.24491 4.48973L4.88696 4.48345C4.76262 4.48345 4.56041 4.52992 4.3896 4.71706C4.21879 4.90419 3.7365 5.35509 3.7365 6.27383C3.7365 7.19256 4.4053 8.0799 4.49824 8.20424C4.59181 8.32858 5.81386 10.2138 7.68588 11.022C8.13112 11.2142 8.47902 11.3291 8.74969 11.4151C9.19681 11.557 9.60374 11.5369 9.92527 11.4892C10.2838 11.4358 11.0293 11.0377 11.185 10.6019C11.3407 10.1654 11.3407 9.79179 11.2936 9.71391Z"/>
</svg>
